<svg xmlns="http://www.w3.org/2000/svg" width="512" height="512" viewBox="0 0 512 512"><defs><style>.a{fill:#fff;}.b{fill:#662d91;}.c,.d{fill:none;stroke:#000;stroke-miterlimit:10;}.d{stroke-width:2px;}</style></defs><rect class="a" width="512" height="512"/><path class="b" d="M106.4365,372.9756H89.26c-8.1436,0-12.0674-1.11-15.9175-4.4424-4.59-3.998-7.0332-11.0312-7.0332-20.1377,0-10.8828,3.7758-18.9531,10.3652-22.3584,2.9609-1.4805,7.9214-2.4433,13.03-2.4433h16.7319v8.81H90.9629c-4.8115,0-8.0693,1.1846-10.3643,3.7754-1.7031,1.999-2.6655,5.9228-2.6655,11.2539,0,6.959,1.481,12.1416,4.22,14.3623,1.999,1.5547,5.0337,2.3691,9.18,2.3691h15.1035Z"/><path class="b" d="M144.2671,342.1768c2.9614,3.5537,4.3677,7.8476,4.3677,13.1787,0,11.1787-7.4034,18.1386-19.2486,18.1386-11.92,0-18.8789-6.8857-18.8789-18.8056,0-11.0313,7.4776-18.2862,19.0269-18.2862C136.123,336.4023,141.0835,338.3271,144.2671,342.1768ZM120.65,355.0586c0,7.1074,3.0356,10.81,9.0322,10.81,5.8487,0,8.81-3.628,8.81-10.9571,0-7.1816-3.0357-10.8838-8.8838-10.8838C123.6113,344.0273,120.65,347.6553,120.65,355.0586Z"/><path class="b" d="M192.4609,336.92c6.8853.0742,9.55.8145,11.92,3.3321,2.0732,2.2207,3.2578,5.7744,3.2578,9.7724v22.9512h-9.9209V351.5791c.2222-5.0342-1.3325-6.8848-5.9229-6.959h-5.2563v28.3555h-9.92V344.62H165.9565v28.3555h-9.9209V336.92Z"/><path class="b" d="M234.0654,336.92c6.7368,0,9.55.667,12.586,3.1094,4.22,3.2578,6.4409,8.5889,6.4409,15.4736,0,5.1826-1.6289,9.625-4.7383,12.8086-3.1836,3.2578-6.96,4.6641-12.9561,4.6641h-8.7358v13.5488h-9.9209V336.92Zm-7.4033,28.3565h6.07c6.8115,0,10.2168-3.4805,10.2168-10.5137,0-6.5147-3.4053-10.1426-9.4765-10.1426h-6.8106Z"/><path class="b" d="M285.2959,351.0615c.1475-4.9609-1.5547-6.4414-7.5518-6.4414H261.0117v-7.7h16.7324c8.44-.1474,11.1788.667,14.2149,3.9981,2.5166,3.0361,3.331,6.1455,3.2568,11.7715v20.2861H274.3379c-7.4775,0-9.3281-.2959-11.5488-1.7774a10.4833,10.4833,0,0,1-4.3682-8.8837c0-4.8868,2.5166-9.0323,6.3672-10.3653,1.6279-.5918,4.5156-.8877,8.3652-.8877ZM273.82,358.7607c-2.3691,0-2.3691,0-3.1836.2217a3.0771,3.0771,0,0,0-2.1474,3.11c0,2.2949,1.4072,3.1836,5.331,3.1836h11.4756v-6.5157Z"/><path class="b" d="M323.5684,336.92c9.7734-.4443,14.4375,4.0723,14.4375,13.8447v22.211H328.085V349.6543c0-3.6279-1.4805-5.1084-5.1084-5.0342h-8.5879v28.3555h-9.92V336.92Z"/><path class="b" d="M347.2568,323.5938h9.9209v9.625h-9.9209Zm9.9209,13.3261v36.0557h-9.9209V336.92Z"/><path class="b" d="M398.2656,342.1768c2.9619,3.5537,4.3682,7.8476,4.3682,13.1787,0,11.1787-7.4033,18.1386-19.249,18.1386-11.92,0-18.8789-6.8857-18.8789-18.8056,0-11.0313,7.4775-18.2862,19.0273-18.2862C390.1221,336.4023,395.082,338.3271,398.2656,342.1768Zm-23.6172,12.8818c0,7.1074,3.0352,10.81,9.0323,10.81,5.8486,0,8.81-3.628,8.81-10.9571,0-7.1816-3.0351-10.8838-8.8848-10.8838C377.61,344.0273,374.6484,347.6553,374.6484,355.0586Z"/><path class="b" d="M429.1348,336.92c9.7724-.4443,14.4375,4.0723,14.4375,13.8447v22.211h-9.9209V349.6543c0-3.6279-1.4805-5.1084-5.1084-5.0342h-8.5889v28.3555h-9.92V336.92Z"/><path class="c" d="M106.4365,372.9756H89.26c-8.1436,0-12.0674-1.11-15.9175-4.4424-4.59-3.998-7.0332-11.0312-7.0332-20.1377,0-10.8828,3.7758-18.9531,10.3652-22.3584,2.9609-1.4805,7.9214-2.4433,13.03-2.4433h16.7319v8.81H90.9629c-4.8115,0-8.0693,1.1846-10.3643,3.7754-1.7031,1.999-2.6655,5.9228-2.6655,11.2539,0,6.959,1.481,12.1416,4.22,14.3623,1.999,1.5547,5.0337,2.3691,9.18,2.3691h15.1035Z"/><path class="c" d="M144.2671,342.1768c2.9614,3.5537,4.3677,7.8476,4.3677,13.1787,0,11.1787-7.4034,18.1386-19.2486,18.1386-11.92,0-18.8789-6.8857-18.8789-18.8056,0-11.0313,7.4776-18.2862,19.0269-18.2862C136.123,336.4023,141.0835,338.3271,144.2671,342.1768ZM120.65,355.0586c0,7.1074,3.0356,10.81,9.0322,10.81,5.8487,0,8.81-3.628,8.81-10.9571,0-7.1816-3.0357-10.8838-8.8838-10.8838C123.6113,344.0273,120.65,347.6553,120.65,355.0586Z"/><path class="c" d="M192.4609,336.92c6.8853.0742,9.55.8145,11.92,3.3321,2.0732,2.2207,3.2578,5.7744,3.2578,9.7724v22.9512h-9.9209V351.5791c.2222-5.0342-1.3325-6.8848-5.9229-6.959h-5.2563v28.3555h-9.92V344.62H165.9565v28.3555h-9.9209V336.92Z"/><path class="c" d="M234.0654,336.92c6.7368,0,9.55.667,12.586,3.1094,4.22,3.2578,6.4409,8.5889,6.4409,15.4736,0,5.1826-1.6289,9.625-4.7383,12.8086-3.1836,3.2578-6.96,4.6641-12.9561,4.6641h-8.7358v13.5488h-9.9209V336.92Zm-7.4033,28.3565h6.07c6.8115,0,10.2168-3.4805,10.2168-10.5137,0-6.5147-3.4053-10.1426-9.4765-10.1426h-6.8106Z"/><path class="c" d="M285.2959,351.0615c.1475-4.9609-1.5547-6.4414-7.5518-6.4414H261.0117v-7.7h16.7324c8.44-.1474,11.1788.667,14.2149,3.9981,2.5166,3.0361,3.331,6.1455,3.2568,11.7715v20.2861H274.3379c-7.4775,0-9.3281-.2959-11.5488-1.7774a10.4833,10.4833,0,0,1-4.3682-8.8837c0-4.8868,2.5166-9.0323,6.3672-10.3653,1.6279-.5918,4.5156-.8877,8.3652-.8877ZM273.82,358.7607c-2.3691,0-2.3691,0-3.1836.2217a3.0771,3.0771,0,0,0-2.1474,3.11c0,2.2949,1.4072,3.1836,5.331,3.1836h11.4756v-6.5157Z"/><path class="c" d="M323.5684,336.92c9.7734-.4443,14.4375,4.0723,14.4375,13.8447v22.211H328.085V349.6543c0-3.6279-1.4805-5.1084-5.1084-5.0342h-8.5879v28.3555h-9.92V336.92Z"/><path class="c" d="M347.2568,323.5938h9.9209v9.625h-9.9209Zm9.9209,13.3261v36.0557h-9.9209V336.92Z"/><path class="c" d="M398.2656,342.1768c2.9619,3.5537,4.3682,7.8476,4.3682,13.1787,0,11.1787-7.4033,18.1386-19.249,18.1386-11.92,0-18.8789-6.8857-18.8789-18.8056,0-11.0313,7.4775-18.2862,19.0273-18.2862C390.1221,336.4023,395.082,338.3271,398.2656,342.1768Zm-23.6172,12.8818c0,7.1074,3.0352,10.81,9.0323,10.81,5.8486,0,8.81-3.628,8.81-10.9571,0-7.1816-3.0351-10.8838-8.8848-10.8838C377.61,344.0273,374.6484,347.6553,374.6484,355.0586Z"/><path class="c" d="M429.1348,336.92c9.7724-.4443,14.4375,4.0723,14.4375,13.8447v22.211h-9.9209V349.6543c0-3.6279-1.4805-5.1084-5.1084-5.0342h-8.5889v28.3555h-9.92V336.92Z"/><path class="b" d="M67.9248,151.668H98.8872l28.5381,48.4956,30.2163-48.4956h31.3355l-48.4957,70.8784v53.5317H113.9956V221.6138Z"/><path class="b" d="M299.958,202.2153v73.8628H244.375c-19.2114,0-29.0972-2.4248-38.2368-9.6992-12.6836-9.8857-19.585-27.9785-19.585-52.0395,0-23.6885,6.9014-41.9673,19.3985-52.04,8.9531-7.0879,21.8232-10.6318,39.5424-10.6318H299.958v22.1963H248.665c-23.6879,0-33.0141,10.8178-33.0141,38.05,0,15.1083,3.3574,28.1645,8.58,34.1333,5.0361,5.4091,12.87,7.8339,25.3667,7.8339h23.874v-29.47H238.7793V202.2153Z"/><path class="b" d="M425.4863,168.8281c8.2071,10.0723,12.87,26.8589,12.87,46.8169,0,21.2632-6.5283,38.7964-18.2793,48.8687-9.3261,7.834-23.874,12.3105-41.2207,12.3105-23.3154,0-41.9677-7.4609-51.6669-20.7041-7.6475-10.4453-11.5645-24.4346-11.5645-41.5942,0-23.1289,6.1553-41.0347,17.72-50.7339,9.6992-8.3936,25.3672-13.0566,43.6465-13.0566C398.4414,150.7354,416.16,157.2637,425.4863,168.8281ZM350.8779,183.75c-4.1035,6.1553-6.1552,16.2276-6.1552,29.8438,0,29.0971,10.0722,42.34,32.455,42.34,22.01,0,32.0811-13.2432,32.0811-41.9673,0-29.0976-9.8848-42.1538-32.0811-42.1538C365.4268,171.8125,356.1006,176.1025,350.8779,183.75Z"/><path class="d" d="M67.9248,151.668H98.8872l28.5381,48.4956,30.2163-48.4956h31.3355l-48.4957,70.8784v53.5317H113.9956V221.6138Z"/><path class="d" d="M299.958,202.2153v73.8628H244.375c-19.2114,0-29.0972-2.4248-38.2368-9.6992-12.6836-9.8857-19.585-27.9785-19.585-52.0395,0-23.6885,6.9014-41.9673,19.3985-52.04,8.9531-7.0879,21.8232-10.6318,39.5424-10.6318H299.958v22.1963H248.665c-23.6879,0-33.0141,10.8178-33.0141,38.05,0,15.1083,3.3574,28.1645,8.58,34.1333,5.0361,5.4091,12.87,7.8339,25.3667,7.8339h23.874v-29.47H238.7793V202.2153Z"/><path class="d" d="M425.4863,168.8281c8.2071,10.0723,12.87,26.8589,12.87,46.8169,0,21.2632-6.5283,38.7964-18.2793,48.8687-9.3261,7.834-23.874,12.3105-41.2207,12.3105-23.3154,0-41.9677-7.4609-51.6669-20.7041-7.6475-10.4453-11.5645-24.4346-11.5645-41.5942,0-23.1289,6.1553-41.0347,17.72-50.7339,9.6992-8.3936,25.3672-13.0566,43.6465-13.0566C398.4414,150.7354,416.16,157.2637,425.4863,168.8281ZM350.8779,183.75c-4.1035,6.1553-6.1552,16.2276-6.1552,29.8438,0,29.0971,10.0722,42.34,32.455,42.34,22.01,0,32.0811-13.2432,32.0811-41.9673,0-29.0976-9.8848-42.1538-32.0811-42.1538C365.4268,171.8125,356.1006,176.1025,350.8779,183.75Z"/></svg>